<mxfile host="Electron" modified="2023-12-01T14:21:50.997Z" agent="Mozilla/5.0 (Windows NT 10.0; Win64; x64) AppleWebKit/537.36 (KHTML, like Gecko) draw.io/22.1.2 Chrome/114.0.5735.289 Electron/25.9.4 Safari/537.36" etag="pPGJOtMqwtK1g4vBx_Lw" version="22.1.2" type="device">
  <diagram name="Page-1" id="bGNTe8BUL3_7QndJwuml">
    <mxGraphModel dx="3397" dy="2554" grid="1" gridSize="10" guides="1" tooltips="1" connect="1" arrows="1" fold="1" page="0" pageScale="1" pageWidth="850" pageHeight="1100" math="0" shadow="0">
      <root>
        <mxCell id="0" />
        <mxCell id="1" parent="0" />
        <mxCell id="JY2gWtfOhdSaY1s9eknw-1" value="" style="shape=ext;double=1;rounded=1;whiteSpace=wrap;html=1;gradientColor=none;" vertex="1" parent="1">
          <mxGeometry x="380" y="60" width="860" height="480" as="geometry" />
        </mxCell>
        <mxCell id="JY2gWtfOhdSaY1s9eknw-3" value="&lt;b&gt;&lt;font style=&quot;font-size: 15px;&quot;&gt;Authentication&lt;/font&gt;&lt;/b&gt;" style="rounded=1;whiteSpace=wrap;html=1;" vertex="1" parent="1">
          <mxGeometry x="30" y="220" width="170" height="100" as="geometry" />
        </mxCell>
        <mxCell id="JY2gWtfOhdSaY1s9eknw-25" style="edgeStyle=orthogonalEdgeStyle;rounded=0;orthogonalLoop=1;jettySize=auto;html=1;exitX=1;exitY=0.5;exitDx=0;exitDy=0;entryX=0;entryY=0.25;entryDx=0;entryDy=0;" edge="1" parent="1" source="JY2gWtfOhdSaY1s9eknw-20" target="JY2gWtfOhdSaY1s9eknw-3">
          <mxGeometry relative="1" as="geometry" />
        </mxCell>
        <mxCell id="JY2gWtfOhdSaY1s9eknw-26" style="edgeStyle=orthogonalEdgeStyle;rounded=0;orthogonalLoop=1;jettySize=auto;html=1;exitX=1;exitY=0.5;exitDx=0;exitDy=0;entryX=0;entryY=0.5;entryDx=0;entryDy=0;" edge="1" parent="1" source="JY2gWtfOhdSaY1s9eknw-21" target="JY2gWtfOhdSaY1s9eknw-3">
          <mxGeometry relative="1" as="geometry" />
        </mxCell>
        <mxCell id="JY2gWtfOhdSaY1s9eknw-27" style="edgeStyle=orthogonalEdgeStyle;rounded=0;orthogonalLoop=1;jettySize=auto;html=1;exitX=1;exitY=0.5;exitDx=0;exitDy=0;entryX=0;entryY=0.75;entryDx=0;entryDy=0;" edge="1" parent="1" source="JY2gWtfOhdSaY1s9eknw-23" target="JY2gWtfOhdSaY1s9eknw-3">
          <mxGeometry relative="1" as="geometry" />
        </mxCell>
        <mxCell id="JY2gWtfOhdSaY1s9eknw-28" value="" style="group" vertex="1" connectable="0" parent="1">
          <mxGeometry x="-390" y="240" width="160" height="60" as="geometry" />
        </mxCell>
        <mxCell id="JY2gWtfOhdSaY1s9eknw-9" value="Actor" style="shape=umlActor;verticalLabelPosition=bottom;verticalAlign=top;html=1;outlineConnect=0;" vertex="1" parent="JY2gWtfOhdSaY1s9eknw-28">
          <mxGeometry width="30" height="60" as="geometry" />
        </mxCell>
        <mxCell id="JY2gWtfOhdSaY1s9eknw-21" value="Moderator" style="rounded=1;whiteSpace=wrap;html=1;" vertex="1" parent="JY2gWtfOhdSaY1s9eknw-28">
          <mxGeometry x="80" y="10" width="80" height="40" as="geometry" />
        </mxCell>
        <mxCell id="JY2gWtfOhdSaY1s9eknw-22" style="edgeStyle=orthogonalEdgeStyle;rounded=0;orthogonalLoop=1;jettySize=auto;html=1;exitX=0.5;exitY=0.5;exitDx=0;exitDy=0;exitPerimeter=0;entryX=0;entryY=0.5;entryDx=0;entryDy=0;" edge="1" parent="JY2gWtfOhdSaY1s9eknw-28" source="JY2gWtfOhdSaY1s9eknw-9" target="JY2gWtfOhdSaY1s9eknw-21">
          <mxGeometry relative="1" as="geometry" />
        </mxCell>
        <mxCell id="JY2gWtfOhdSaY1s9eknw-29" value="" style="group" vertex="1" connectable="0" parent="1">
          <mxGeometry x="-380" y="50" width="140" height="60" as="geometry" />
        </mxCell>
        <mxCell id="JY2gWtfOhdSaY1s9eknw-19" style="edgeStyle=orthogonalEdgeStyle;rounded=0;orthogonalLoop=1;jettySize=auto;html=1;exitX=0.5;exitY=0.5;exitDx=0;exitDy=0;exitPerimeter=0;" edge="1" parent="JY2gWtfOhdSaY1s9eknw-29" source="JY2gWtfOhdSaY1s9eknw-8">
          <mxGeometry relative="1" as="geometry">
            <mxPoint x="60" y="30" as="targetPoint" />
          </mxGeometry>
        </mxCell>
        <mxCell id="JY2gWtfOhdSaY1s9eknw-8" value="Actor" style="shape=umlActor;verticalLabelPosition=bottom;verticalAlign=top;html=1;outlineConnect=0;" vertex="1" parent="JY2gWtfOhdSaY1s9eknw-29">
          <mxGeometry width="30" height="60" as="geometry" />
        </mxCell>
        <mxCell id="JY2gWtfOhdSaY1s9eknw-20" value="Admin" style="rounded=1;whiteSpace=wrap;html=1;" vertex="1" parent="JY2gWtfOhdSaY1s9eknw-29">
          <mxGeometry x="60" y="10" width="80" height="40" as="geometry" />
        </mxCell>
        <mxCell id="JY2gWtfOhdSaY1s9eknw-30" value="" style="group" vertex="1" connectable="0" parent="1">
          <mxGeometry x="-400" y="410" width="170" height="60" as="geometry" />
        </mxCell>
        <mxCell id="JY2gWtfOhdSaY1s9eknw-10" value="Actor" style="shape=umlActor;verticalLabelPosition=bottom;verticalAlign=top;html=1;outlineConnect=0;" vertex="1" parent="JY2gWtfOhdSaY1s9eknw-30">
          <mxGeometry width="30" height="60" as="geometry" />
        </mxCell>
        <mxCell id="JY2gWtfOhdSaY1s9eknw-23" value="Guest (Normal User)" style="rounded=1;whiteSpace=wrap;html=1;" vertex="1" parent="JY2gWtfOhdSaY1s9eknw-30">
          <mxGeometry x="90" y="10" width="80" height="40" as="geometry" />
        </mxCell>
        <mxCell id="JY2gWtfOhdSaY1s9eknw-24" style="edgeStyle=orthogonalEdgeStyle;rounded=0;orthogonalLoop=1;jettySize=auto;html=1;exitX=0.5;exitY=0.5;exitDx=0;exitDy=0;exitPerimeter=0;entryX=0;entryY=0.5;entryDx=0;entryDy=0;" edge="1" parent="JY2gWtfOhdSaY1s9eknw-30" source="JY2gWtfOhdSaY1s9eknw-10" target="JY2gWtfOhdSaY1s9eknw-23">
          <mxGeometry relative="1" as="geometry" />
        </mxCell>
        <mxCell id="JY2gWtfOhdSaY1s9eknw-31" style="edgeStyle=orthogonalEdgeStyle;rounded=0;orthogonalLoop=1;jettySize=auto;html=1;exitX=1;exitY=0.5;exitDx=0;exitDy=0;entryX=0;entryY=0.436;entryDx=0;entryDy=0;entryPerimeter=0;" edge="1" parent="1" source="JY2gWtfOhdSaY1s9eknw-3" target="JY2gWtfOhdSaY1s9eknw-1">
          <mxGeometry relative="1" as="geometry" />
        </mxCell>
        <mxCell id="JY2gWtfOhdSaY1s9eknw-52" style="edgeStyle=orthogonalEdgeStyle;rounded=0;orthogonalLoop=1;jettySize=auto;html=1;exitX=0.75;exitY=1;exitDx=0;exitDy=0;entryX=0;entryY=0.25;entryDx=0;entryDy=0;" edge="1" parent="1" source="JY2gWtfOhdSaY1s9eknw-32" target="JY2gWtfOhdSaY1s9eknw-50">
          <mxGeometry relative="1" as="geometry" />
        </mxCell>
        <mxCell id="JY2gWtfOhdSaY1s9eknw-83" style="edgeStyle=orthogonalEdgeStyle;rounded=0;orthogonalLoop=1;jettySize=auto;html=1;exitX=0.5;exitY=0;exitDx=0;exitDy=0;entryX=0;entryY=0.5;entryDx=0;entryDy=0;startArrow=classic;startFill=1;" edge="1" parent="1" source="JY2gWtfOhdSaY1s9eknw-32" target="JY2gWtfOhdSaY1s9eknw-82">
          <mxGeometry relative="1" as="geometry" />
        </mxCell>
        <mxCell id="JY2gWtfOhdSaY1s9eknw-32" value="Server" style="rounded=1;whiteSpace=wrap;html=1;" vertex="1" parent="1">
          <mxGeometry x="440" y="120" width="140" height="60" as="geometry" />
        </mxCell>
        <mxCell id="JY2gWtfOhdSaY1s9eknw-33" value="&lt;b&gt;View of functionality faced by user after authentication success&lt;/b&gt;" style="text;html=1;strokeColor=none;fillColor=none;align=center;verticalAlign=middle;whiteSpace=wrap;rounded=0;" vertex="1" parent="1">
          <mxGeometry x="660" width="250" height="40" as="geometry" />
        </mxCell>
        <mxCell id="JY2gWtfOhdSaY1s9eknw-34" value="&lt;b&gt;Sign-in / Sign-up / logout&lt;/b&gt;" style="text;html=1;strokeColor=none;fillColor=none;align=center;verticalAlign=middle;whiteSpace=wrap;rounded=0;" vertex="1" parent="1">
          <mxGeometry x="30" y="150" width="160" height="50" as="geometry" />
        </mxCell>
        <mxCell id="JY2gWtfOhdSaY1s9eknw-37" style="edgeStyle=orthogonalEdgeStyle;rounded=0;orthogonalLoop=1;jettySize=auto;html=1;exitX=0;exitY=1;exitDx=0;exitDy=-15;exitPerimeter=0;entryX=0;entryY=0.5;entryDx=0;entryDy=0;" edge="1" parent="1" source="JY2gWtfOhdSaY1s9eknw-35" target="JY2gWtfOhdSaY1s9eknw-32">
          <mxGeometry relative="1" as="geometry" />
        </mxCell>
        <mxCell id="JY2gWtfOhdSaY1s9eknw-35" value="" style="shape=cylinder3;whiteSpace=wrap;html=1;boundedLbl=1;backgroundOutline=1;size=15;" vertex="1" parent="1">
          <mxGeometry x="340" y="-140" width="90" height="110" as="geometry" />
        </mxCell>
        <mxCell id="JY2gWtfOhdSaY1s9eknw-36" value="" style="image;aspect=fixed;html=1;points=[];align=center;fontSize=12;image=img/lib/azure2/databases/Azure_Database_PostgreSQL_Server.svg;" vertex="1" parent="1">
          <mxGeometry x="361" y="-108" width="48" height="64" as="geometry" />
        </mxCell>
        <mxCell id="JY2gWtfOhdSaY1s9eknw-38" style="edgeStyle=orthogonalEdgeStyle;rounded=0;orthogonalLoop=1;jettySize=auto;html=1;exitX=0;exitY=0.25;exitDx=0;exitDy=0;entryX=0.145;entryY=1;entryDx=0;entryDy=-4.35;entryPerimeter=0;" edge="1" parent="1" source="JY2gWtfOhdSaY1s9eknw-32" target="JY2gWtfOhdSaY1s9eknw-35">
          <mxGeometry relative="1" as="geometry" />
        </mxCell>
        <mxCell id="JY2gWtfOhdSaY1s9eknw-44" value="" style="rounded=1;whiteSpace=wrap;html=1;" vertex="1" parent="1">
          <mxGeometry x="700" y="110" width="230" height="250" as="geometry" />
        </mxCell>
        <mxCell id="JY2gWtfOhdSaY1s9eknw-45" value="&lt;b&gt;Channels in single server&lt;/b&gt;" style="text;html=1;strokeColor=none;fillColor=none;align=center;verticalAlign=middle;whiteSpace=wrap;rounded=0;" vertex="1" parent="1">
          <mxGeometry x="725" y="70" width="180" height="30" as="geometry" />
        </mxCell>
        <mxCell id="JY2gWtfOhdSaY1s9eknw-47" value="Text Channel" style="rounded=1;whiteSpace=wrap;html=1;" vertex="1" parent="1">
          <mxGeometry x="755" y="120" width="120" height="60" as="geometry" />
        </mxCell>
        <mxCell id="JY2gWtfOhdSaY1s9eknw-48" value="Audio Channel" style="rounded=1;whiteSpace=wrap;html=1;" vertex="1" parent="1">
          <mxGeometry x="755" y="200" width="120" height="60" as="geometry" />
        </mxCell>
        <mxCell id="JY2gWtfOhdSaY1s9eknw-49" value="Video Channel" style="rounded=1;whiteSpace=wrap;html=1;" vertex="1" parent="1">
          <mxGeometry x="760" y="280" width="120" height="60" as="geometry" />
        </mxCell>
        <mxCell id="JY2gWtfOhdSaY1s9eknw-53" style="edgeStyle=orthogonalEdgeStyle;rounded=0;orthogonalLoop=1;jettySize=auto;html=1;exitX=0;exitY=0.75;exitDx=0;exitDy=0;entryX=0.25;entryY=1;entryDx=0;entryDy=0;" edge="1" parent="1" source="JY2gWtfOhdSaY1s9eknw-50" target="JY2gWtfOhdSaY1s9eknw-32">
          <mxGeometry relative="1" as="geometry" />
        </mxCell>
        <mxCell id="JY2gWtfOhdSaY1s9eknw-50" value="Users" style="rounded=1;whiteSpace=wrap;html=1;" vertex="1" parent="1">
          <mxGeometry x="710" y="420" width="220" height="60" as="geometry" />
        </mxCell>
        <mxCell id="JY2gWtfOhdSaY1s9eknw-51" value="Users in single server" style="text;html=1;strokeColor=none;fillColor=none;align=center;verticalAlign=middle;whiteSpace=wrap;rounded=0;" vertex="1" parent="1">
          <mxGeometry x="730" y="380" width="180" height="30" as="geometry" />
        </mxCell>
        <mxCell id="JY2gWtfOhdSaY1s9eknw-54" value="&lt;b&gt;Adding users via : invitaion link&lt;/b&gt;" style="text;html=1;strokeColor=none;fillColor=none;align=center;verticalAlign=middle;whiteSpace=wrap;rounded=0;" vertex="1" parent="1">
          <mxGeometry x="560" y="400" width="130" height="30" as="geometry" />
        </mxCell>
        <mxCell id="JY2gWtfOhdSaY1s9eknw-55" value="&lt;b&gt;Retrieving users data and thier roels&lt;/b&gt;" style="text;html=1;strokeColor=none;fillColor=none;align=center;verticalAlign=middle;whiteSpace=wrap;rounded=0;" vertex="1" parent="1">
          <mxGeometry x="540" y="470" width="150" height="30" as="geometry" />
        </mxCell>
        <mxCell id="JY2gWtfOhdSaY1s9eknw-60" style="edgeStyle=orthogonalEdgeStyle;rounded=0;orthogonalLoop=1;jettySize=auto;html=1;exitX=0.02;exitY=0.98;exitDx=0;exitDy=0;exitPerimeter=0;entryX=1;entryY=0.25;entryDx=0;entryDy=0;" edge="1" parent="1" source="JY2gWtfOhdSaY1s9eknw-56" target="JY2gWtfOhdSaY1s9eknw-50">
          <mxGeometry relative="1" as="geometry" />
        </mxCell>
        <mxCell id="JY2gWtfOhdSaY1s9eknw-56" value="" style="outlineConnect=0;dashed=0;verticalLabelPosition=bottom;verticalAlign=top;align=center;html=1;shape=mxgraph.aws3.traditional_server;fillColor=#7D7C7C;gradientColor=none;" vertex="1" parent="1">
          <mxGeometry x="1100" y="-170" width="90" height="102" as="geometry" />
        </mxCell>
        <mxCell id="JY2gWtfOhdSaY1s9eknw-57" value="&lt;b&gt;Web Socket Server&lt;/b&gt;" style="text;html=1;strokeColor=none;fillColor=none;align=center;verticalAlign=middle;whiteSpace=wrap;rounded=0;" vertex="1" parent="1">
          <mxGeometry x="1100" y="-210" width="80" height="30" as="geometry" />
        </mxCell>
        <mxCell id="JY2gWtfOhdSaY1s9eknw-58" style="edgeStyle=orthogonalEdgeStyle;rounded=0;orthogonalLoop=1;jettySize=auto;html=1;exitX=1;exitY=0.5;exitDx=0;exitDy=0;entryX=0.5;entryY=1;entryDx=0;entryDy=0;entryPerimeter=0;" edge="1" parent="1" source="JY2gWtfOhdSaY1s9eknw-50" target="JY2gWtfOhdSaY1s9eknw-56">
          <mxGeometry relative="1" as="geometry" />
        </mxCell>
        <mxCell id="JY2gWtfOhdSaY1s9eknw-59" value="&lt;b&gt;Adding new messages to : one-to-one user conversation / text channel&lt;/b&gt;" style="text;html=1;strokeColor=none;fillColor=none;align=center;verticalAlign=middle;whiteSpace=wrap;rounded=0;" vertex="1" parent="1">
          <mxGeometry x="940" y="460" width="230" height="50" as="geometry" />
        </mxCell>
        <mxCell id="JY2gWtfOhdSaY1s9eknw-61" value="&lt;b&gt;Retrieving messages in one-to-one conversation&lt;/b&gt;" style="text;html=1;strokeColor=none;fillColor=none;align=center;verticalAlign=middle;whiteSpace=wrap;rounded=0;rotation=-90;" vertex="1" parent="1">
          <mxGeometry x="895" y="315" width="190" height="30" as="geometry" />
        </mxCell>
        <mxCell id="JY2gWtfOhdSaY1s9eknw-67" style="edgeStyle=orthogonalEdgeStyle;rounded=0;orthogonalLoop=1;jettySize=auto;html=1;exitX=1;exitY=0.5;exitDx=0;exitDy=0;entryX=1;entryY=0.5;entryDx=0;entryDy=0;entryPerimeter=0;startArrow=classic;startFill=1;" edge="1" parent="1" source="JY2gWtfOhdSaY1s9eknw-47" target="JY2gWtfOhdSaY1s9eknw-56">
          <mxGeometry relative="1" as="geometry" />
        </mxCell>
        <mxCell id="JY2gWtfOhdSaY1s9eknw-68" style="edgeStyle=orthogonalEdgeStyle;rounded=0;orthogonalLoop=1;jettySize=auto;html=1;exitX=0.02;exitY=0.02;exitDx=0;exitDy=0;exitPerimeter=0;entryX=0.5;entryY=0;entryDx=0;entryDy=0;entryPerimeter=0;" edge="1" parent="1" source="JY2gWtfOhdSaY1s9eknw-56" target="JY2gWtfOhdSaY1s9eknw-35">
          <mxGeometry relative="1" as="geometry" />
        </mxCell>
        <mxCell id="JY2gWtfOhdSaY1s9eknw-69" style="rounded=0;orthogonalLoop=1;jettySize=auto;html=1;exitX=1;exitY=0;exitDx=0;exitDy=15;exitPerimeter=0;entryX=0;entryY=0.5;entryDx=0;entryDy=0;entryPerimeter=0;" edge="1" parent="1" source="JY2gWtfOhdSaY1s9eknw-35" target="JY2gWtfOhdSaY1s9eknw-56">
          <mxGeometry relative="1" as="geometry" />
        </mxCell>
        <mxCell id="JY2gWtfOhdSaY1s9eknw-70" value="&lt;b&gt;&lt;font style=&quot;font-size: 15px;&quot;&gt;Adding / Retrieving messages from / to text-channel&lt;/font&gt;&lt;/b&gt;" style="text;html=1;strokeColor=none;fillColor=none;align=center;verticalAlign=middle;whiteSpace=wrap;rounded=0;rotation=-90;" vertex="1" parent="1">
          <mxGeometry x="1010" y="-80" width="440" height="110" as="geometry" />
        </mxCell>
        <mxCell id="JY2gWtfOhdSaY1s9eknw-73" value="&lt;b&gt;&lt;font style=&quot;font-size: 15px;&quot;&gt;Adding messages to database&lt;/font&gt;&lt;/b&gt;" style="text;html=1;strokeColor=none;fillColor=none;align=center;verticalAlign=middle;whiteSpace=wrap;rounded=0;" vertex="1" parent="1">
          <mxGeometry x="560" y="-230" width="380" height="40" as="geometry" />
        </mxCell>
        <mxCell id="JY2gWtfOhdSaY1s9eknw-74" value="&lt;b&gt;&lt;font style=&quot;font-size: 15px;&quot;&gt;Retrieving messages from database&lt;/font&gt;&lt;/b&gt;" style="text;html=1;strokeColor=none;fillColor=none;align=center;verticalAlign=middle;whiteSpace=wrap;rounded=0;" vertex="1" parent="1">
          <mxGeometry x="560" y="-108" width="380" height="40" as="geometry" />
        </mxCell>
        <mxCell id="JY2gWtfOhdSaY1s9eknw-75" value="&lt;b&gt;&lt;font style=&quot;font-size: 15px;&quot;&gt;Retriving server data&lt;/font&gt;&lt;/b&gt;" style="text;html=1;strokeColor=none;fillColor=none;align=center;verticalAlign=middle;whiteSpace=wrap;rounded=0;rotation=90;" vertex="1" parent="1">
          <mxGeometry x="210" y="50" width="160" height="30" as="geometry" />
        </mxCell>
        <mxCell id="JY2gWtfOhdSaY1s9eknw-76" value="&lt;b&gt;&lt;font style=&quot;font-size: 11px;&quot;&gt;Adding / Updating server data&lt;/font&gt;&lt;/b&gt;" style="text;html=1;strokeColor=none;fillColor=none;align=center;verticalAlign=middle;whiteSpace=wrap;rounded=0;rotation=90;" vertex="1" parent="1">
          <mxGeometry x="260" y="40" width="220" height="30" as="geometry" />
        </mxCell>
        <mxCell id="JY2gWtfOhdSaY1s9eknw-80" value="&lt;h1 style=&quot;font-size: 29px;&quot;&gt;&lt;font style=&quot;font-size: 29px;&quot;&gt;Audio / Video Channels&lt;/font&gt;&lt;/h1&gt;&lt;p style=&quot;font-size: 29px;&quot;&gt;&lt;font style=&quot;font-size: 29px;&quot;&gt;They are also contains embedded text chat to send and retrieve data in real time&lt;/font&gt;&lt;/p&gt;" style="text;html=1;strokeColor=none;fillColor=none;spacing=5;spacingTop=-20;whiteSpace=wrap;overflow=hidden;rounded=0;" vertex="1" parent="1">
          <mxGeometry x="-100" y="640" width="1210" height="270" as="geometry" />
        </mxCell>
        <mxCell id="JY2gWtfOhdSaY1s9eknw-84" style="edgeStyle=orthogonalEdgeStyle;rounded=0;orthogonalLoop=1;jettySize=auto;html=1;exitX=1;exitY=0.5;exitDx=0;exitDy=0;startArrow=classic;startFill=1;" edge="1" parent="1" source="JY2gWtfOhdSaY1s9eknw-82" target="JY2gWtfOhdSaY1s9eknw-56">
          <mxGeometry relative="1" as="geometry" />
        </mxCell>
        <mxCell id="JY2gWtfOhdSaY1s9eknw-82" value="" style="editableCssRules=.*;html=1;shape=image;verticalLabelPosition=bottom;labelBackgroundColor=#ffffff;verticalAlign=top;aspect=fixed;imageAspect=0;image=data:image/svg+xml,PHN2ZyB4bWxucz0iaHR0cDovL3d3dy53My5vcmcvMjAwMC9zdmciIHhtbG5zOnY9Imh0dHBzOi8vdmVjdGEuaW8vbmFubyIgd2lkdGg9IjIwIiBoZWlnaHQ9IjIwIiB2aWV3Qm94PSIwIDAgMjAgMjAiPiYjeGE7CTxzdHlsZSB0eXBlPSJ0ZXh0L2NzcyI+JiN4YTsJLnN0MHtmaWxsOiM0Mjg1ZjQ7fSYjeGE7CS5zdDF7ZmlsbDojNjY5ZGY2O30mI3hhOwkuc3Qye2ZpbGw6I2FlY2JmYTt9JiN4YTsJPC9zdHlsZT4mI3hhOwk8cGF0aCBjbGFzcz0ic3QxIiBkPSJNMTMuMTMgNS42M1YzLjIxTDEwIDB2Mi40MXptMy43NSA3LjVMMjAgMTBoLTIuNWwtMy4xMiAzLjEzem0tMTMuNzUgMEwwIDEwaDIuNWwzLjEzIDMuMTN6bTEwIDEuMjV2Mi40MUwxMCAyMHYtMi40MXoiIGZpbGwtcnVsZT0iZXZlbm9kZCIvPiYjeGE7CTxwYXRoIGNsYXNzPSJzdDIiIGQ9Ik02Ljg4IDUuNjNMMTAgMi40MVYwTDYuODggMy4yMXpNMTcuNSAxMEgyMGwtMy4xMi0zLjEyaC0yLjV6bS0xNSAwSDBsMy4xMy0zLjEyaDIuNXptNC4zOCA0LjM4TDEwIDE3LjU5VjIwbC0zLjEyLTMuMjF6bTAtNy41aDYuMjV2Ni4yNUg2Ljg4eiIgZmlsbC1ydWxlPSJldmVub2RkIi8+JiN4YTsJPHBhdGggY2xhc3M9InN0MSIgZD0iTTYuODggMTMuMTNsNi4yNS02LjI1djYuMjV6IiBmaWxsLXJ1bGU9ImV2ZW5vZGQiLz4mI3hhOwk8cGF0aCBjbGFzcz0ic3QwIiBkPSJNMTAgMTBsMy4xMy0zLjEydjYuMjV6IiBmaWxsLXJ1bGU9ImV2ZW5vZGQiLz4mI3hhOzwvc3ZnPg==;" vertex="1" parent="1">
          <mxGeometry x="740" y="-730" width="125" height="125" as="geometry" />
        </mxCell>
        <mxCell id="JY2gWtfOhdSaY1s9eknw-86" value="&lt;b&gt;&lt;font style=&quot;font-size: 15px;&quot;&gt;Adding / Retrieving server images&lt;/font&gt;&lt;/b&gt;" style="text;html=1;strokeColor=none;fillColor=none;align=center;verticalAlign=middle;whiteSpace=wrap;rounded=0;rotation=-90;" vertex="1" parent="1">
          <mxGeometry x="340" y="-480" width="260" height="30" as="geometry" />
        </mxCell>
        <mxCell id="JY2gWtfOhdSaY1s9eknw-88" value="&lt;b&gt;&lt;font style=&quot;font-size: 15px;&quot;&gt;Adding / Retrieving text channel / one-to-one conversation images and pdfs&lt;/font&gt;&lt;/b&gt;" style="text;html=1;strokeColor=none;fillColor=none;align=center;verticalAlign=middle;whiteSpace=wrap;rounded=0;rotation=90;" vertex="1" parent="1">
          <mxGeometry x="1010" y="-490" width="370" height="80" as="geometry" />
        </mxCell>
        <mxCell id="JY2gWtfOhdSaY1s9eknw-91" value="&lt;font style=&quot;font-size: 15px;&quot;&gt;&lt;b&gt;CDN Cloud Storage&lt;/b&gt;&lt;/font&gt;" style="text;html=1;strokeColor=none;fillColor=none;align=center;verticalAlign=middle;whiteSpace=wrap;rounded=0;" vertex="1" parent="1">
          <mxGeometry x="627.5" y="-770" width="350" height="30" as="geometry" />
        </mxCell>
      </root>
    </mxGraphModel>
  </diagram>
</mxfile>
